<svg width="178" height="43" viewBox="0 0 178 43" fill="none" xmlns="http://www.w3.org/2000/svg">
<g clip-path="url(#clip0_97_56)">
<path d="M21.6612 29.7058L40.6171 10.75L43.1612 13.2762L21.6612 34.7762L11.6458 24.7608L14.1721 22.2346L21.6612 29.7058Z" fill="#8DC5E4"/>
<path d="M29.7238 10.0155L32.25 12.5418L20.8909 23.9009L18.3646 21.3747L29.7238 10.0155Z" fill="#497AA8"/>
<path d="M10.75 34.0418L0.734619 24.0263L3.27879 21.5001L13.2763 31.5155L10.75 34.0418Z" fill="#497AA8"/>
</g>
<path d="M58.3691 23.4805H53.9648L53.9434 22.3633H57.7354C58.5088 22.3633 59.1676 22.2523 59.7119 22.0303C60.2562 21.8083 60.668 21.4788 60.9473 21.042C61.2337 20.598 61.377 20.0537 61.377 19.4092C61.377 18.7503 61.2373 18.2061 60.958 17.7764C60.6787 17.3395 60.2598 17.0173 59.7012 16.8096C59.1426 16.6019 58.4408 16.498 57.5957 16.498H54.3086V31H52.9873V15.3594H57.5957C58.3906 15.3594 59.1032 15.4382 59.7334 15.5957C60.3636 15.7533 60.9007 16.0003 61.3447 16.3369C61.7887 16.6735 62.1253 17.0996 62.3545 17.6152C62.5908 18.1237 62.709 18.7324 62.709 19.4414C62.709 20.0859 62.5658 20.6696 62.2793 21.1924C61.9928 21.708 61.5882 22.1305 61.0654 22.46C60.5498 22.7822 59.9303 22.9827 59.207 23.0615L58.3691 23.4805ZM58.2725 31H53.5459L54.2227 29.8721H58.2725C59.0459 29.8721 59.7048 29.7432 60.249 29.4854C60.8005 29.2204 61.223 28.8444 61.5166 28.3574C61.8102 27.8704 61.957 27.2904 61.957 26.6172C61.957 26.0228 61.8281 25.4893 61.5703 25.0166C61.3125 24.5439 60.9186 24.1715 60.3887 23.8994C59.8587 23.6201 59.1855 23.4805 58.3691 23.4805H55.6299L55.6514 22.3633H59.5293L59.7656 22.7607C60.4674 22.8324 61.0798 23.0508 61.6025 23.416C62.1325 23.7741 62.5407 24.2288 62.8271 24.7803C63.1208 25.3317 63.2676 25.9368 63.2676 26.5957C63.2676 27.541 63.0563 28.3431 62.6338 29.002C62.2184 29.6536 61.6348 30.1514 60.8828 30.4951C60.138 30.8317 59.2679 31 58.2725 31ZM68.0474 14.5V31H66.7691V14.5H68.0474ZM79.4445 28.3145V19.377H80.7335V31H79.4982L79.4445 28.3145ZM79.6808 26.166L80.3468 26.1445C80.3468 26.875 80.2609 27.5482 80.089 28.1641C79.9171 28.7799 79.6486 29.3171 79.2833 29.7754C78.9181 30.2337 78.4454 30.5882 77.8654 30.8389C77.2853 31.0895 76.587 31.2148 75.7706 31.2148C75.2049 31.2148 74.6857 31.1361 74.213 30.9785C73.7475 30.8138 73.3465 30.556 73.0099 30.2051C72.6733 29.8542 72.4119 29.3994 72.2257 28.8408C72.0467 28.2822 71.9571 27.6055 71.9571 26.8105V19.377H73.2355V26.832C73.2355 27.4551 73.3035 27.9743 73.4396 28.3896C73.5828 28.805 73.7762 29.138 74.0196 29.3887C74.2703 29.6393 74.5568 29.8184 74.879 29.9258C75.2013 30.0332 75.5486 30.0869 75.921 30.0869C76.8663 30.0869 77.6111 29.9043 78.1554 29.5391C78.7068 29.1738 79.0971 28.694 79.3263 28.0996C79.5626 27.498 79.6808 26.8535 79.6808 26.166ZM85.8141 21.8584V31H84.5358V19.377H85.7604L85.8141 21.8584ZM85.5241 24.4688L84.9548 24.1465C84.9977 23.459 85.1374 22.8145 85.3737 22.2129C85.61 21.6113 85.9287 21.0814 86.3298 20.623C86.738 20.1647 87.2142 19.8066 87.7585 19.5488C88.3099 19.291 88.9186 19.1621 89.5846 19.1621C90.1647 19.1621 90.6839 19.2409 91.1423 19.3984C91.6006 19.556 91.9909 19.8066 92.3132 20.1504C92.6354 20.4941 92.8789 20.9346 93.0436 21.4717C93.2155 22.0088 93.3014 22.6641 93.3014 23.4375V31H92.0124V23.4268C92.0124 22.6247 91.9014 21.998 91.6794 21.5469C91.4574 21.0885 91.1423 20.7627 90.7341 20.5693C90.3259 20.376 89.8425 20.2793 89.2839 20.2793C88.668 20.2793 88.1273 20.4154 87.6618 20.6875C87.2035 20.9525 86.8167 21.2998 86.5016 21.7295C86.1937 22.152 85.9574 22.6068 85.7927 23.0938C85.6279 23.5736 85.5384 24.0319 85.5241 24.4688ZM104.623 28.7441V14.5H105.912V31H104.709L104.623 28.7441ZM96.5559 25.3066V25.0811C96.5559 24.1787 96.6597 23.3659 96.8674 22.6426C97.0751 21.9121 97.3723 21.2891 97.759 20.7734C98.1529 20.2507 98.6256 19.8532 99.177 19.5811C99.7284 19.3018 100.351 19.1621 101.046 19.1621C101.726 19.1621 102.328 19.2731 102.851 19.4951C103.374 19.7171 103.821 20.0358 104.194 20.4512C104.573 20.8665 104.878 21.3607 105.107 21.9336C105.343 22.5065 105.515 23.1439 105.622 23.8457V26.7139C105.536 27.3727 105.379 27.9779 105.15 28.5293C104.92 29.0736 104.616 29.5498 104.237 29.958C103.857 30.359 103.399 30.6706 102.862 30.8926C102.332 31.1074 101.719 31.2148 101.025 31.2148C100.337 31.2148 99.7177 31.0716 99.1662 30.7852C98.6148 30.4987 98.1457 30.0941 97.759 29.5713C97.3723 29.0413 97.0751 28.4147 96.8674 27.6914C96.6597 26.9681 96.5559 26.1732 96.5559 25.3066ZM97.845 25.0811V25.3066C97.845 25.987 97.913 26.6172 98.0491 27.1973C98.1851 27.7773 98.3928 28.2822 98.6721 28.7119C98.9514 29.1416 99.3059 29.4782 99.7356 29.7217C100.165 29.9652 100.674 30.0869 101.261 30.0869C101.999 30.0869 102.618 29.9473 103.119 29.668C103.621 29.3815 104.022 29.0055 104.322 28.54C104.623 28.0674 104.842 27.5518 104.978 26.9932V23.6523C104.892 23.2728 104.767 22.8861 104.602 22.4922C104.437 22.0983 104.211 21.7367 103.925 21.4072C103.646 21.0706 103.288 20.8021 102.851 20.6016C102.421 20.3939 101.898 20.29 101.282 20.29C100.688 20.29 100.176 20.4118 99.7463 20.6553C99.3166 20.8988 98.9586 21.2389 98.6721 21.6758C98.3928 22.1055 98.1851 22.6104 98.0491 23.1904C97.913 23.7705 97.845 24.4007 97.845 25.0811ZM114.226 31.2148C113.467 31.2148 112.769 31.0752 112.132 30.7959C111.501 30.5166 110.95 30.1227 110.477 29.6143C110.012 29.1058 109.65 28.5042 109.392 27.8096C109.142 27.1077 109.016 26.3415 109.016 25.5107V25.0488C109.016 24.1536 109.149 23.3444 109.414 22.6211C109.679 21.8978 110.044 21.2783 110.51 20.7627C110.975 20.2471 111.505 19.8532 112.099 19.5811C112.701 19.3018 113.331 19.1621 113.99 19.1621C114.728 19.1621 115.383 19.2946 115.956 19.5596C116.529 19.8174 117.009 20.1862 117.395 20.666C117.789 21.1387 118.086 21.7008 118.287 22.3525C118.487 22.9971 118.588 23.7096 118.588 24.4902V25.2744H109.79V24.1787H117.309V24.0283C117.295 23.3766 117.163 22.7679 116.912 22.2021C116.668 21.6292 116.303 21.1637 115.816 20.8057C115.329 20.4476 114.721 20.2686 113.99 20.2686C113.446 20.2686 112.944 20.3831 112.486 20.6123C112.035 20.8415 111.645 21.1709 111.315 21.6006C110.993 22.0231 110.742 22.528 110.563 23.1152C110.391 23.6953 110.305 24.3398 110.305 25.0488V25.5107C110.305 26.1553 110.399 26.7568 110.585 27.3154C110.778 27.8669 111.05 28.3538 111.401 28.7764C111.759 29.1989 112.182 29.5283 112.669 29.7646C113.156 30.001 113.693 30.1191 114.28 30.1191C114.968 30.1191 115.576 29.9938 116.106 29.7432C116.636 29.4854 117.112 29.0807 117.535 28.5293L118.341 29.1523C118.09 29.5247 117.775 29.8685 117.395 30.1836C117.023 30.4987 116.575 30.7493 116.053 30.9355C115.53 31.1217 114.921 31.2148 114.226 31.2148ZM122.841 21.2998V31H121.563V19.377H122.809L122.841 21.2998ZM126.955 19.291L126.923 20.4727C126.78 20.4512 126.64 20.4333 126.504 20.4189C126.368 20.4046 126.221 20.3975 126.064 20.3975C125.505 20.3975 125.015 20.5013 124.592 20.709C124.177 20.9095 123.826 21.1924 123.539 21.5576C123.253 21.9157 123.035 22.3382 122.884 22.8252C122.734 23.305 122.648 23.8206 122.626 24.3721L122.154 24.5547C122.154 23.7956 122.232 23.0902 122.39 22.4385C122.548 21.7868 122.787 21.2174 123.11 20.7305C123.439 20.2363 123.851 19.8532 124.345 19.5811C124.846 19.3018 125.434 19.1621 126.107 19.1621C126.272 19.1621 126.433 19.1764 126.59 19.2051C126.755 19.2266 126.877 19.2552 126.955 19.291ZM135.098 23.4805H130.693L130.672 22.3633H134.464C135.237 22.3633 135.896 22.2523 136.44 22.0303C136.985 21.8083 137.396 21.4788 137.676 21.042C137.962 20.598 138.105 20.0537 138.105 19.4092C138.105 18.7503 137.966 18.2061 137.686 17.7764C137.407 17.3395 136.988 17.0173 136.43 16.8096C135.871 16.6019 135.169 16.498 134.324 16.498H131.037V31H129.716V15.3594H134.324C135.119 15.3594 135.832 15.4382 136.462 15.5957C137.092 15.7533 137.629 16.0003 138.073 16.3369C138.517 16.6735 138.854 17.0996 139.083 17.6152C139.319 18.1237 139.437 18.7324 139.437 19.4414C139.437 20.0859 139.294 20.6696 139.008 21.1924C138.721 21.708 138.317 22.1305 137.794 22.46C137.278 22.7822 136.659 22.9827 135.935 23.0615L135.098 23.4805ZM135.001 31H130.274L130.951 29.8721H135.001C135.774 29.8721 136.433 29.7432 136.977 29.4854C137.529 29.2204 137.951 28.8444 138.245 28.3574C138.539 27.8704 138.685 27.2904 138.685 26.6172C138.685 26.0228 138.557 25.4893 138.299 25.0166C138.041 24.5439 137.647 24.1715 137.117 23.8994C136.587 23.6201 135.914 23.4805 135.098 23.4805H132.358L132.38 22.3633H136.258L136.494 22.7607C137.196 22.8324 137.808 23.0508 138.331 23.416C138.861 23.7741 139.269 24.2288 139.556 24.7803C139.849 25.3317 139.996 25.9368 139.996 26.5957C139.996 27.541 139.785 28.3431 139.362 29.002C138.947 29.6536 138.363 30.1514 137.611 30.4951C136.866 30.8317 135.996 31 135.001 31ZM150.791 28.3145V19.377H152.081V31H150.845L150.791 28.3145ZM151.028 26.166L151.694 26.1445C151.694 26.875 151.608 27.5482 151.436 28.1641C151.264 28.7799 150.996 29.3171 150.63 29.7754C150.265 30.2337 149.792 30.5882 149.212 30.8389C148.632 31.0895 147.934 31.2148 147.118 31.2148C146.552 31.2148 146.033 31.1361 145.56 30.9785C145.095 30.8138 144.693 30.556 144.357 30.2051C144.02 29.8542 143.759 29.3994 143.573 28.8408C143.394 28.2822 143.304 27.6055 143.304 26.8105V19.377H144.582V26.832C144.582 27.4551 144.651 27.9743 144.787 28.3896C144.93 28.805 145.123 29.138 145.367 29.3887C145.617 29.6393 145.904 29.8184 146.226 29.9258C146.548 30.0332 146.896 30.0869 147.268 30.0869C148.213 30.0869 148.958 29.9043 149.502 29.5391C150.054 29.1738 150.444 28.694 150.673 28.0996C150.91 27.498 151.028 26.8535 151.028 26.166ZM163.531 19.377H164.724V30.7959C164.724 31.8057 164.53 32.6722 164.144 33.3955C163.764 34.1188 163.223 34.6738 162.522 35.0605C161.827 35.4473 161.007 35.6406 160.062 35.6406C159.582 35.6406 159.088 35.5654 158.579 35.415C158.078 35.2718 157.602 35.0498 157.15 34.749C156.706 34.4554 156.327 34.0902 156.012 33.6533L156.731 32.8691C157.204 33.4421 157.709 33.861 158.246 34.126C158.783 34.3981 159.363 34.5342 159.986 34.5342C160.724 34.5342 161.347 34.3874 161.856 34.0938C162.371 33.8001 162.761 33.3776 163.026 32.8262C163.299 32.2747 163.435 31.6123 163.435 30.8389V21.9336L163.531 19.377ZM155.367 25.3066V25.0811C155.367 24.1787 155.467 23.3659 155.668 22.6426C155.876 21.9121 156.173 21.2891 156.56 20.7734C156.946 20.2507 157.415 19.8532 157.967 19.5811C158.525 19.3018 159.156 19.1621 159.857 19.1621C160.531 19.1621 161.129 19.2731 161.651 19.4951C162.174 19.7171 162.625 20.0358 163.005 20.4512C163.384 20.8665 163.689 21.3607 163.918 21.9336C164.154 22.5065 164.326 23.1439 164.434 23.8457V26.7139C164.348 27.3727 164.19 27.9779 163.961 28.5293C163.732 29.0736 163.427 29.5498 163.048 29.958C162.668 30.359 162.21 30.6706 161.673 30.8926C161.143 31.1074 160.531 31.2148 159.836 31.2148C159.141 31.2148 158.518 31.0716 157.967 30.7852C157.415 30.4987 156.946 30.0941 156.56 29.5713C156.173 29.0413 155.876 28.4147 155.668 27.6914C155.467 26.9681 155.367 26.1732 155.367 25.3066ZM156.656 25.0811V25.3066C156.656 25.987 156.724 26.6172 156.86 27.1973C156.996 27.7773 157.204 28.2822 157.483 28.7119C157.763 29.1416 158.117 29.4782 158.547 29.7217C158.977 29.9652 159.481 30.0869 160.062 30.0869C160.799 30.0869 161.419 29.9473 161.92 29.668C162.421 29.3815 162.819 29.0055 163.112 28.54C163.406 28.0674 163.621 27.5518 163.757 26.9932V23.6523C163.678 23.2728 163.556 22.8861 163.392 22.4922C163.234 22.0983 163.012 21.7367 162.726 21.4072C162.446 21.0706 162.088 20.8021 161.651 20.6016C161.222 20.3939 160.699 20.29 160.083 20.29C159.496 20.29 158.984 20.4118 158.547 20.6553C158.117 20.8988 157.763 21.2389 157.483 21.6758C157.204 22.1055 156.996 22.6104 156.86 23.1904C156.724 23.7705 156.656 24.4007 156.656 25.0811ZM175.487 28.0352C175.487 27.7201 175.408 27.4085 175.251 27.1006C175.093 26.7926 174.789 26.5098 174.338 26.252C173.893 25.9941 173.238 25.7757 172.372 25.5967C171.727 25.4535 171.151 25.2923 170.642 25.1133C170.141 24.9342 169.718 24.7194 169.375 24.4688C169.031 24.2181 168.769 23.9173 168.59 23.5664C168.411 23.2155 168.322 22.8001 168.322 22.3203C168.322 21.8906 168.415 21.486 168.601 21.1064C168.795 20.7197 169.067 20.3831 169.418 20.0967C169.776 19.8031 170.205 19.5739 170.707 19.4092C171.215 19.2445 171.784 19.1621 172.415 19.1621C173.31 19.1621 174.076 19.3161 174.713 19.624C175.358 19.9248 175.849 20.3366 176.185 20.8594C176.529 21.3822 176.701 21.973 176.701 22.6318H175.422C175.422 22.2308 175.304 21.8512 175.068 21.4932C174.839 21.1351 174.499 20.8415 174.047 20.6123C173.603 20.3831 173.059 20.2686 172.415 20.2686C171.749 20.2686 171.208 20.3688 170.793 20.5693C170.377 20.7699 170.073 21.0241 169.879 21.332C169.693 21.64 169.6 21.9587 169.6 22.2881C169.6 22.5459 169.64 22.7822 169.718 22.9971C169.804 23.2048 169.955 23.3981 170.17 23.5771C170.392 23.7562 170.707 23.9245 171.115 24.082C171.523 24.2396 172.053 24.3936 172.705 24.5439C173.643 24.7516 174.409 25.0059 175.004 25.3066C175.605 25.6003 176.049 25.9655 176.336 26.4023C176.622 26.832 176.765 27.3548 176.765 27.9707C176.765 28.4505 176.665 28.891 176.464 29.292C176.264 29.6859 175.974 30.026 175.594 30.3125C175.222 30.599 174.771 30.821 174.241 30.9785C173.718 31.1361 173.131 31.2148 172.479 31.2148C171.498 31.2148 170.667 31.0537 169.987 30.7314C169.314 30.402 168.802 29.9723 168.451 29.4424C168.107 28.9053 167.935 28.3359 167.935 27.7344H169.213C169.256 28.3359 169.446 28.8122 169.783 29.1631C170.119 29.5068 170.531 29.7503 171.018 29.8936C171.512 30.0368 171.999 30.1084 172.479 30.1084C173.138 30.1084 173.689 30.0117 174.133 29.8184C174.577 29.625 174.914 29.3708 175.143 29.0557C175.372 28.7406 175.487 28.4004 175.487 28.0352Z" fill="#497AA8"/>
<defs>
<clipPath id="clip0_97_56">
<rect width="43" height="43" fill="white"/>
</clipPath>
</defs>
</svg>
